<svg width="512" height="512" xmlns="http://www.w3.org/2000/svg"><g fill="#fff"><path d="M419.316 54.174c4.023-1.451 8.364-.262 11.11 2.66a10.388 10.388 0 01-6.869 9.124 10.406 10.406 0 01-11.111-2.648c.259-4.004 2.835-7.684 6.87-9.136zm52.584 6.85c-18.867-31.692-62.678-45.07-111.51 18.258a250.615 250.615 0 00-7.41 10.162c-.823 1.188-1.648 2.4-2.476 3.634-52.726 78.844-118.174 102.916-204.565 85.743a174.492 174.492 0 00-15.772-2.43c-6.59-.713-12.748-.954-18.483-.82-21.173.468-36.773 6.12-48.051 13.087-12.819 7.954-20.056 17.63-23.533 23.422 6.46-4.006 26.46-8.118 86.469-3.135-1.202 10.363-5.56 22.06-16.721 32.363-28.224 26.057-22.177 51.575 15.04 43.307 26.585-5.903 42.716-38.44 34.764-72.413a1732.787 1732.787 0 0130.658 3.72c44.997 5.837 86.25-2.831 122.505-18.578 3.155 15.724 3.932 43.27-20.35 65.68-36.227 33.445-28.454 66.2 19.311 55.578 44.768-9.942 66.432-78.691 25.528-133.315C420.683 139.387 471.9 61.025 471.9 61.025"/><path d="M192.27 231.49c-1.961 3.398-4.577 6.754-8.03 9.936-22.068 20.37-17.336 40.324 11.76 33.85 17.025-3.78 28.555-21.524 28.758-42.417a232.084 232.084 0 01-32.488-1.368M404.027 157.554l-.813.68a410.293 410.293 0 01-17.982 14.179c6.546 6.625 12.776 16.894 11.902 31.66-1.785 29.975 15.449 41.082 31.942 16.25 12.678-19.076 1.844-48.939-25.049-62.77M111.344 160.35c11.709-.281 24.365.91 37.57 3.534 82.974 16.5 141.246-7.953 188.937-79.268.886-1.32 1.755-2.585 2.621-3.839a280.89 280.89 0 017.662-10.54c-74.82-49.985-190.372-39.148-241.53 7.233-35.882 32.548-43.102 71.002-43.708 94.18 14.144-7.102 30.403-10.892 48.448-11.3"/><path style="line-height:0;-inkscape-font-specification:'QTVagaRound Bold'" d="M179.097 465.348c0-3.342-2.735-6.685-4.558-9.115l-19.447-24.31 15.8-15.192c2.127-2.127 3.95-5.47 3.95-8.508 0-.608-.303-2.127-.303-2.735-.912-3.646-4.862-7.596-8.812-7.596-4.254 0-7.293.607-10.028 3.646l-22.181 22.79v-47.403c0-6.685-4.254-12.458-11.243-12.458-7.293 0-11.243 5.773-11.243 12.458v87.512c0 6.685 4.254 12.762 11.243 12.762 7.292 0 11.243-6.077 11.243-12.762v-25.22l25.22 32.512c2.43 3.647 6.381 5.47 10.635 5.47 6.077 0 9.724-5.773 9.724-11.85zm87.63-19.447V410.35c0-6.685-3.95-12.458-10.939-12.458-7.292 0-11.242 5.773-11.242 12.458v32.817c0 3.646-.912 6.988-3.647 9.42-2.43 2.43-5.47 3.646-8.812 3.646-3.342 0-6.38-1.216-8.812-3.647-2.734-2.43-3.342-5.773-3.342-9.42V410.35c0-6.685-4.254-12.458-11.243-12.458-7.292 0-11.243 5.773-11.243 12.458V445.9c0 6.381 1.52 13.066 5.47 18.232 6.989 8.812 18.231 13.37 29.17 13.37 11.243 0 22.486-4.558 29.17-13.37 4.255-5.166 5.47-11.85 5.47-18.232zm90.062 19.447c0-3.342-2.735-6.685-4.558-9.115l-19.447-24.31 15.8-15.192c2.128-2.127 3.951-5.47 3.951-8.508 0-.608-.304-2.127-.304-2.735-.911-3.646-4.862-7.596-8.812-7.596-4.254 0-7.292.607-10.027 3.646l-22.182 22.79v-47.403c0-6.685-4.254-12.458-11.243-12.458-7.292 0-11.242 5.773-11.242 12.458v87.512c0 6.685 4.254 12.762 11.242 12.762 7.293 0 11.243-6.077 11.243-12.762v-25.22l25.22 32.512c2.431 3.647 6.381 5.47 10.636 5.47 6.077 0 9.723-5.773 9.723-11.85zm44.179-87.815c0-6.989-5.773-13.066-12.762-13.066-7.293 0-13.066 6.077-13.066 13.066 0 6.989 5.773 13.066 13.066 13.066 6.989 0 12.762-6.077 12.762-13.066zm-1.823 86.904V410.35c0-6.685-4.254-12.458-11.243-12.458-7.293 0-11.243 5.773-11.243 12.458v54.087c0 6.685 4.254 12.762 11.243 12.762 7.293 0 11.243-5.773 11.243-12.762z" aria-label="kuki" font-weight="700" font-size="74.667" font-family="QTVagaRound" letter-spacing="2" word-spacing="0" paint-order="stroke fill markers"/></g></svg>