<svg width="512" height="512" xmlns="http://www.w3.org/2000/svg"><g fill="#fff"><path d="M435.854 120.11c4.431-1.598 9.211-.289 12.236 2.93a11.44 11.44 0 01-7.565 10.047 11.46 11.46 0 01-12.236-2.916c.285-4.41 3.122-8.462 7.565-10.06zm57.91 7.545C472.986 92.753 424.738 78.02 370.96 147.76c-2.7 3.513-5.428 7.24-8.16 11.19a324.272 324.272 0 00-2.727 4.002c-58.065 86.828-130.141 113.338-225.28 94.426a192.163 192.163 0 00-17.37-2.675c-7.257-.786-14.038-1.051-20.354-.905-23.317.517-40.497 6.74-52.918 14.414-14.116 8.76-22.087 19.416-25.916 25.793 7.114-4.41 29.14-8.94 95.225-3.452-1.322 11.412-6.121 24.294-18.414 35.64-31.082 28.696-24.422 56.798 16.564 47.693 29.277-6.5 47.041-42.332 38.284-79.746a1908.26 1908.26 0 0133.763 4.096c49.554 6.428 94.984-3.117 134.91-20.459 3.475 17.317 4.33 47.651-22.411 72.331-39.895 36.832-31.334 72.905 21.267 61.207 49.302-10.949 73.16-86.66 28.113-146.816 91.823-50.548 148.227-136.845 148.227-136.845"/><path d="M185.816 315.383c-2.16 3.741-5.04 7.437-8.843 10.942-24.303 22.433-19.091 44.407 12.95 37.278 18.75-4.164 31.448-23.704 31.672-46.713a255.587 255.587 0 01-35.779-1.507M419.018 233.959a451.841 451.841 0 01-20.699 16.364c7.208 7.296 14.07 18.604 13.108 34.866-1.967 33.01 17.012 45.242 35.176 17.895 13.962-21.008 2.03-53.894-27.585-69.125M96.695 237.039c12.895-.31 26.833 1 41.375 3.891 91.377 18.17 155.549-8.758 208.07-87.296a385.83 385.83 0 012.886-4.227 309.336 309.336 0 018.439-11.607c-82.397-55.047-209.65-43.113-265.99 7.965-39.516 35.844-47.467 78.193-48.134 103.717 15.576-7.82 33.481-11.994 53.354-12.443"/></g></svg>