<svg width="509.068" height="150.02" xmlns="http://www.w3.org/2000/svg"><g fill="#fff"><path d="M481.586 10.705a5.423 5.423 0 015.788 1.386 5.412 5.412 0 01-3.579 4.753 5.421 5.421 0 01-5.788-1.38 5.428 5.428 0 013.579-4.759zm27.393 3.57c-9.828-16.51-32.652-23.48-58.09 9.51a130.557 130.557 0 00-3.86 5.294c-.43.619-.86 1.25-1.29 1.893-27.468 41.073-61.563 53.613-106.568 44.667a90.9 90.9 0 00-8.217-1.265 73.537 73.537 0 00-9.627-.428c-11.03.244-19.157 3.188-25.033 6.818-6.677 4.144-10.448 9.184-12.259 12.201 3.365-2.086 13.784-4.228 45.046-1.633-.626 5.399-2.896 11.492-8.711 16.86-14.703 13.574-11.553 26.867 7.835 22.56 13.85-3.075 22.253-20.025 18.11-37.723 4.935.55 10.25 1.195 15.971 1.938 23.441 3.04 44.932-1.475 63.819-9.678 1.643 8.191 2.048 22.54-10.602 34.215-18.872 17.423-14.822 34.487 10.06 28.954 23.322-5.18 34.608-40.994 13.299-69.45 43.436-23.911 70.117-64.734 70.117-64.734"/><path d="M363.307 103.077c-1.021 1.77-2.384 3.518-4.183 5.176-11.496 10.612-9.03 21.007 6.126 17.635 8.87-1.97 14.876-11.214 14.982-22.098-5.646.16-11.294-.08-16.925-.713M473.621 64.56l-.423.355a213.74 213.74 0 01-9.368 7.386c3.41 3.452 6.655 8.8 6.2 16.494-.93 15.615 8.048 21.4 16.64 8.464 6.605-9.937.96-25.494-13.049-32.699M321.15 66.017c6.1-.147 12.692.474 19.572 1.841 43.224 8.595 73.58-4.143 98.425-41.294.462-.688.914-1.347 1.366-2a146.329 146.329 0 013.991-5.491c-38.977-26.04-99.173-20.394-125.824 3.768-18.693 16.956-22.454 36.988-22.77 49.062 7.369-3.699 15.839-5.673 25.24-5.886"/><path style="line-height:0;-inkscape-font-specification:'QTVagaRound Bold'" d="M63.609 116.401c0-3.12-2.553-6.24-4.255-8.51L41.2 85.198l14.75-14.182c1.985-1.986 3.687-5.106 3.687-7.943 0-.567-.283-1.986-.283-2.553-.851-3.404-4.539-7.091-8.226-7.091-3.972 0-6.808.567-9.361 3.404L21.06 78.107v-44.25c0-6.241-3.972-11.63-10.496-11.63C3.757 22.226.07 27.615.07 33.856v81.693c0 6.24 3.971 11.914 10.495 11.914 6.808 0 10.496-5.673 10.496-11.914V92.006l23.543 30.352c2.27 3.404 5.957 5.106 9.929 5.106 5.673 0 9.077-5.39 9.077-11.063zm81.805-18.154V65.059c0-6.24-3.688-11.63-10.212-11.63-6.808 0-10.495 5.39-10.495 11.63v30.635c0 3.404-.851 6.524-3.404 8.793-2.27 2.27-5.106 3.404-8.226 3.404-3.12 0-5.957-1.134-8.226-3.404-2.553-2.269-3.12-5.39-3.12-8.793V65.059c0-6.24-3.972-11.63-10.496-11.63-6.808 0-10.495 5.39-10.495 11.63v33.188c0 5.957 1.418 12.197 5.105 17.02 6.525 8.225 17.02 12.48 27.232 12.48 10.495 0 20.99-4.255 27.231-12.48 3.971-4.823 5.106-11.063 5.106-17.02zm84.074 18.154c0-3.12-2.553-6.24-4.255-8.51L207.08 85.198l14.75-14.182c1.986-1.986 3.688-5.106 3.688-7.943 0-.567-.284-1.986-.284-2.553-.85-3.404-4.538-7.091-8.226-7.091-3.97 0-6.808.567-9.36 3.404l-20.708 21.274v-44.25c0-6.241-3.97-11.63-10.495-11.63-6.808 0-10.495 5.389-10.495 11.63v81.693c0 6.24 3.97 11.914 10.495 11.914 6.808 0 10.495-5.673 10.495-11.914V92.006l23.544 30.352c2.27 3.404 5.957 5.106 9.928 5.106 5.673 0 9.077-5.39 9.077-11.063zm41.242-81.977c0-6.525-5.39-12.198-11.913-12.198-6.808 0-12.198 5.673-12.198 12.198 0 6.524 5.39 12.197 12.198 12.197 6.524 0 11.913-5.673 11.913-12.197zm-1.702 81.126V65.059c0-6.24-3.97-11.63-10.495-11.63-6.808 0-10.495 5.39-10.495 11.63v50.491c0 6.24 3.97 11.914 10.495 11.914 6.808 0 10.495-5.39 10.495-11.914z" aria-label="kuki" font-weight="700" font-size="133.801" font-family="QTVagaRound" letter-spacing="3.584" word-spacing="0" paint-order="stroke fill markers"/></g></svg>