<svg xmlns="http://www.w3.org/2000/svg" width="2380" height="1300" preserveAspectRatio="xMidYMid" style="z-index:1;animation-play-state:paused" display="block"><g style="animation-play-state:paused"><path d="M831.314 1048.489c0 19.152-4.686 5.5-10.188 5.5s-10.187 13.652-10.187-5.5 4.686-5.502 10.187-5.502 10.188-13.651 10.188 5.502z" fill="none" style="animation-play-state:paused"/><circle r="4.457" fill="#73a543" opacity=".9" transform="translate(811.099 1053.62)" style="animation-play-state:paused"/><path d="M1558.045 687.905c0 30.615-7.491 8.794-16.285 8.794s-16.284 21.821-16.284-8.794 7.49-8.793 16.284-8.793 16.285-21.822 16.285 8.793z" fill="none" style="animation-play-state:paused"/><circle r="5.593" fill="#73a543" opacity=".9" transform="translate(1557.929 682.043)" style="animation-play-state:paused"/><path d="M950.82 56.611c0 25.98-6.356 7.462-13.818 7.462s-13.819 18.517-13.819-7.462 6.357-7.462 13.819-7.462 13.819-18.517 13.819 7.462z" fill="none" style="animation-play-state:paused"/><circle r="4.105" fill="#73a543" opacity=".9" transform="translate(923.968 67.644)" style="animation-play-state:paused"/><path d="M1800.095 759.29c0 20.072-4.91 5.765-10.676 5.765s-10.676 14.307-10.676-5.765 4.91-5.765 10.676-5.765 10.676-14.306 10.676 5.765z" fill="none" style="animation-play-state:paused"/><circle r="3.951" fill="#73a543" opacity=".9" transform="translate(1791.105 753.15)" style="animation-play-state:paused"/><path d="M153.251 367.452c0 20.8-5.09 5.975-11.064 5.975s-11.064 14.826-11.064-5.975 5.09-5.974 11.064-5.974 11.064-14.826 11.064 5.974z" fill="none" style="animation-play-state:paused"/><circle r="4.676" fill="#73a543" opacity=".9" transform="translate(131.575 359.495)" style="animation-play-state:paused"/><path d="M374.134 167.777c0 21.03-5.145 6.04-11.186 6.04s-11.185 14.99-11.185-6.04 5.145-6.04 11.185-6.04 11.186-14.989 11.186 6.04z" fill="none" style="animation-play-state:paused"/><circle r="5.845" fill="#73a543" opacity=".9" transform="translate(351.766 168.71)" style="animation-play-state:paused"/><path d="M2111.766 747.134c0 35.37-8.655 10.16-18.815 10.16s-18.814 25.21-18.814-10.16 8.655-10.16 18.814-10.16 18.815-25.21 18.815 10.16z" fill="none" style="animation-play-state:paused"/><circle r="3.259" fill="#73a543" opacity=".9" transform="translate(2109.93 729.871)" style="animation-play-state:paused"/><path d="M1978.133 774.865c0 26.403-6.46 7.584-14.044 7.584s-14.044 18.819-14.044-7.584 6.46-7.584 14.044-7.584 14.044-18.82 14.044 7.584z" fill="none" style="animation-play-state:paused"/><circle r="3.624" fill="#73a543" opacity=".9" transform="translate(1950.251 781.75)" style="animation-play-state:paused"/><path d="M2196.815 489.056c0 26.679-6.528 7.663-14.191 7.663s-14.191 19.016-14.191-7.663 6.528-7.663 14.19-7.663 14.192-19.016 14.192 7.663z" fill="none" style="animation-play-state:paused"/><circle r="5.147" fill="#73a543" opacity=".9" transform="translate(2174.987 476.972)" style="animation-play-state:paused"/><path d="M1113.038 730.86c0 26.242-6.42 7.538-13.958 7.538s-13.959 18.704-13.959-7.538 6.421-7.538 13.959-7.538 13.958-18.704 13.958 7.538z" fill="none" style="animation-play-state:paused"/><circle r="4.226" fill="#73a543" opacity=".9" transform="translate(1111.063 717.215)" style="animation-play-state:paused"/><path d="M1351.192 131.669c0 27.233-6.663 7.822-14.485 7.822s-14.486 19.411-14.486-7.822 6.663-7.822 14.486-7.822 14.485-19.411 14.485 7.822z" fill="none" style="animation-play-state:paused"/><circle r="5.839" fill="#73a543" opacity=".9" transform="translate(1350.908 139.635)" style="animation-play-state:paused"/><path d="M986.846 825.56c0 28.724-7.028 8.25-15.278 8.25s-15.279 20.474-15.279-8.25 7.028-8.25 15.279-8.25 15.278-20.473 15.278 8.25z" fill="none" style="animation-play-state:paused"/><circle r="4.554" fill="#73a543" opacity=".9" transform="translate(976.155 835.59)" style="animation-play-state:paused"/><path d="M450.265 106.43c0 26.173-6.404 7.518-13.922 7.518s-13.921 18.655-13.921-7.517 6.404-7.518 13.921-7.518 13.922-18.655 13.922 7.518z" fill="none" style="animation-play-state:paused"/><circle r="3.801" fill="#73a543" opacity=".9" transform="translate(449.982 114.2)" style="animation-play-state:paused"/><path d="M761.29 545.492c0 37.134-9.086 10.666-19.752 10.666s-19.752 26.468-19.752-10.666 9.086-10.666 19.752-10.666 19.752-26.468 19.752 10.666z" fill="none" style="animation-play-state:paused"/><circle r="4.914" fill="#73a543" opacity=".9" transform="translate(723.481 527.88)" style="animation-play-state:paused"/><path d="M958.769 1232.532c0 31.339-7.668 9.002-16.67 9.002s-16.669 22.337-16.669-9.002 7.668-9.001 16.67-9.001 16.669-22.337 16.669 9.001z" fill="none" style="animation-play-state:paused"/><circle r="3.799" fill="#73a543" opacity=".9" transform="translate(942.563 1223.511)" style="animation-play-state:paused"/><path d="M1086.229 867.458c0 37.463-9.167 10.76-19.927 10.76s-19.927 26.703-19.927-10.76 9.166-10.76 19.927-10.76 19.927-26.703 19.927 10.76z" fill="none" style="animation-play-state:paused"/><circle r="3.021" fill="#73a543" opacity=".9" transform="translate(1061.904 855.38)" style="animation-play-state:paused"/><path d="M2352.657 1212.686c0 31.73-7.764 9.114-16.878 9.114s-16.877 22.616-16.877-9.114 7.763-9.114 16.877-9.114 16.878-22.616 16.878 9.114z" fill="none" style="animation-play-state:paused"/><circle r="3.832" fill="#73a543" opacity=".9" transform="translate(2326.694 1198.313)" style="animation-play-state:paused"/><path d="M1778.188 970.212c0 24.764-6.06 7.113-13.172 7.113s-13.173 17.65-13.173-7.113 6.06-7.113 13.173-7.113 13.172-17.651 13.172 7.113z" fill="none" style="animation-play-state:paused"/><circle r="4.655" fill="#73a543" opacity=".9" transform="translate(1777.815 961.882)" style="animation-play-state:paused"/><path d="M1774.669 1184.56c0 22.801-5.58 6.55-12.129 6.55s-12.128 16.251-12.128-6.55 5.579-6.55 12.128-6.55 12.129-16.252 12.129 6.55z" fill="none" style="animation-play-state:paused"/><circle r="3.007" fill="#73a543" opacity=".9" transform="translate(1750.425 1186.376)" style="animation-play-state:paused"/><path d="M1082.517 1266.472c0 30.9-7.56 8.876-16.436 8.876s-16.436 22.023-16.436-8.876 7.56-8.875 16.436-8.875 16.436-22.024 16.436 8.875z" fill="none" style="animation-play-state:paused"/><circle r="5.601" fill="#73a543" opacity=".9" transform="translate(1080.87 1281.634)" style="animation-play-state:paused"/><path d="M2150.182 55.68c0 31.886-7.802 9.158-16.96 9.158s-16.962 22.728-16.962-9.159 7.802-9.159 16.961-9.159 16.961-22.727 16.961 9.16z" fill="none" style="animation-play-state:paused"/><circle r="5.992" fill="#73a543" opacity=".9" transform="translate(2116.26 55.979)" style="animation-play-state:paused"/><path d="M2220.163 520.65c0 24.128-5.903 6.93-12.834 6.93s-12.833 17.198-12.833-6.93 5.903-6.93 12.833-6.93 12.834-17.197 12.834 6.93z" fill="none" style="animation-play-state:paused"/><circle r="4.524" fill="#73a543" opacity=".9" transform="translate(2199.872 509.256)" style="animation-play-state:paused"/><path d="M1117.911 942.631c0 27.476-6.722 7.892-14.614 7.892s-14.615 19.584-14.615-7.892 6.723-7.891 14.615-7.891 14.614-19.584 14.614 7.891z" fill="none" style="animation-play-state:paused"/><circle r="5.143" fill="#73a543" opacity=".9" transform="translate(1117.057 930.864)" style="animation-play-state:paused"/><path d="M1400.213 165.448c0 28.598-6.997 8.214-15.212 8.214s-15.211 20.384-15.211-8.214 6.997-8.214 15.211-8.214 15.212-20.384 15.212 8.214z" fill="none" style="animation-play-state:paused"/><circle r="3.568" fill="#73a543" opacity=".9" transform="translate(1375.037 151.07)" style="animation-play-state:paused"/><path d="M88.883 882.99c0 29.716-7.271 8.535-15.807 8.535s-15.806 21.18-15.806-8.535 7.27-8.535 15.806-8.535 15.807-21.181 15.807 8.535z" fill="none" style="animation-play-state:paused"/><circle r="5.801" fill="#73a543" opacity=".9" transform="translate(87.375 897.422)" style="animation-play-state:paused"/><path d="M168.954 1104.404c0 22.988-5.625 6.603-12.228 6.603s-12.228 16.385-12.228-6.603 5.624-6.603 12.228-6.603 12.228-16.386 12.228 6.603z" fill="none" style="animation-play-state:paused"/><circle r="4.627" fill="#73a543" opacity=".9" transform="translate(145.023 1113.347)" style="animation-play-state:paused"/><path d="M231.857 27.647c0 28.534-6.981 8.196-15.177 8.196s-15.178 20.338-15.178-8.196 6.981-8.196 15.178-8.196 15.177-20.339 15.177 8.196z" fill="none" style="animation-play-state:paused"/><circle r="5.455" fill="#73a543" opacity=".9" transform="translate(216.476 19.447)" style="animation-play-state:paused"/><path d="M2192.74 510.864c0 29.04-7.106 8.341-15.447 8.341s-15.447 20.699-15.447-8.341 7.105-8.342 15.447-8.342 15.447-20.698 15.447 8.342z" fill="none" style="animation-play-state:paused"/><circle r="5.471" fill="#73a543" opacity=".9" transform="translate(2192.192 500.28)" style="animation-play-state:paused"/><path d="M277.078 76.694c0 32.392-7.926 9.304-17.23 9.304s-17.23 23.088-17.23-9.304 7.926-9.304 17.23-9.304 17.23-23.088 17.23 9.304z" fill="none" style="animation-play-state:paused"/><circle r="4.729" fill="#73a543" opacity=".9" transform="translate(251.652 90.432)" style="animation-play-state:paused"/><path d="M43.794 1234.047c0 24.109-5.9 6.925-12.824 6.925s-12.824 17.184-12.824-6.925 5.9-6.925 12.824-6.925 12.824-17.183 12.824 6.925z" fill="none" style="animation-play-state:paused"/><circle r="4.409" fill="#73a543" opacity=".9" transform="translate(40.634 1246.832)" style="animation-play-state:paused"/><path d="M237.597 881.577c0 21.342-5.222 6.13-11.352 6.13s-11.352 15.212-11.352-6.13 5.221-6.13 11.352-6.13 11.352-15.211 11.352 6.13z" fill="none" style="animation-play-state:paused"/><circle r="4.1" fill="#73a543" opacity=".9" transform="translate(237.48 886.355)" style="animation-play-state:paused"/><path d="M1125.175 588.364c0 24.631-6.027 7.075-13.102 7.075s-13.102 17.556-13.102-7.075 6.027-7.075 13.102-7.075 13.102-17.557 13.102 7.075z" fill="none" style="animation-play-state:paused"/><circle r="4.858" fill="#73a543" opacity=".9" transform="translate(1115.502 596.626)" style="animation-play-state:paused"/><path d="M894.582 195.863c0 26.914-6.585 7.731-14.316 7.731s-14.316 19.183-14.316-7.73 6.586-7.731 14.316-7.731 14.316-19.184 14.316 7.73z" fill="none" style="animation-play-state:paused"/><circle r="5.796" fill="#73a543" opacity=".9" transform="translate(891.307 210.194)" style="animation-play-state:paused"/><path d="M256.577 544.222c0 27.017-6.61 7.76-14.37 7.76s-14.37 19.257-14.37-7.76 6.61-7.76 14.37-7.76 14.37-19.257 14.37 7.76z" fill="none" style="animation-play-state:paused"/><circle r="4.077" fill="#73a543" opacity=".9" transform="translate(236.874 554.42)" style="animation-play-state:paused"/><path d="M1090.163 746.308c0 20.111-4.92 5.777-10.697 5.777s-10.698 14.334-10.698-5.777 4.921-5.776 10.698-5.776 10.697-14.335 10.697 5.776z" fill="none" style="animation-play-state:paused"/><circle r="5.754" fill="#73a543" opacity=".9" transform="translate(1089.646 754.437)" style="animation-play-state:paused"/><path d="M1593.874 1078.923c0 35.102-8.589 10.083-18.671 10.083s-18.672 25.019-18.672-10.083 8.59-10.082 18.672-10.082 18.67-25.02 18.67 10.082z" fill="none" style="animation-play-state:paused"/><circle r="5.615" fill="#73a543" opacity=".9" transform="translate(1557.883 1094.879)" style="animation-play-state:paused"/><path d="M2300.063 1170.852c0 19.006-4.65 5.46-10.11 5.46s-10.11 13.546-10.11-5.46 4.65-5.46 10.11-5.46 10.11-13.546 10.11 5.46z" fill="none" style="animation-play-state:paused"/><circle r="5.746" fill="#73a543" opacity=".9" transform="translate(2299.844 1165.075)" style="animation-play-state:paused"/><path d="M996.32 273.251c0 25.68-6.283 7.377-13.66 7.377S969 298.932 969 273.25s6.284-7.376 13.66-7.376 13.66-18.304 13.66 7.376z" fill="none" style="animation-play-state:paused"/><circle r="4.271" fill="#73a543" opacity=".9" transform="translate(970.19 285.47)" style="animation-play-state:paused"/><path d="M573.456 930.33c0 27.877-6.82 8.007-14.828 8.007s-14.828 19.87-14.828-8.007 6.82-8.007 14.828-8.007 14.828-19.87 14.828 8.007z" fill="none" style="animation-play-state:paused"/><circle r="4.299" fill="#73a543" opacity=".9" transform="translate(560.279 922.058)" style="animation-play-state:paused"/><path d="M268.987 719.333c0 30.189-7.386 8.672-16.057 8.672s-16.058 21.517-16.058-8.672 7.386-8.67 16.058-8.67 16.057-21.518 16.057 8.67z" fill="none" style="animation-play-state:paused"/><circle r="3.409" fill="#73a543" opacity=".9" transform="translate(237.025 712.777)" style="animation-play-state:paused"/><path d="M1447.763 346.757c0 23.34-5.711 6.704-12.415 6.704s-12.416 16.637-12.416-6.704 5.711-6.704 12.416-6.704 12.415-16.637 12.415 6.704z" fill="none" style="animation-play-state:paused"/><circle r="3.88" fill="#73a543" opacity=".9" transform="translate(1447.74 349.197)" style="animation-play-state:paused"/><path d="M1602.498 617.376c0 35.953-8.797 10.327-19.124 10.327s-19.124 25.626-19.124-10.327 8.797-10.327 19.124-10.327 19.124-25.626 19.124 10.327z" fill="none" style="animation-play-state:paused"/><circle r="3.969" fill="#73a543" opacity=".9" transform="translate(1596.623 598.836)" style="animation-play-state:paused"/><path d="M1033.72 1138.59c0 36.77-8.997 10.562-19.559 10.562s-19.558 26.208-19.558-10.562 8.997-10.562 19.558-10.562 19.559-26.209 19.559 10.562z" fill="none" style="animation-play-state:paused"/><circle r="5.305" fill="#73a543" opacity=".9" transform="translate(1005.915 1123.901)" style="animation-play-state:paused"/><path d="M64.603 731.945c0 20.673-5.058 5.938-10.996 5.938s-10.996 14.735-10.996-5.938 5.058-5.938 10.996-5.938 10.996-14.735 10.996 5.938z" fill="none" style="animation-play-state:paused"/><circle r="4.828" fill="#73a543" opacity=".9" transform="translate(62.845 742.838)" style="animation-play-state:paused"/><path d="M381.127 617.225c0 26.674-6.527 7.661-14.189 7.661s-14.188 19.013-14.188-7.661 6.526-7.662 14.188-7.662 14.189-19.012 14.189 7.662z" fill="none" style="animation-play-state:paused"/><circle r="5.481" fill="#73a543" opacity=".9" transform="translate(380.608 627.05)" style="animation-play-state:paused"/><path d="M1588.702 890.099c0 32.046-7.842 9.205-17.046 9.205s-17.046 22.841-17.046-9.205 7.84-9.205 17.046-9.205 17.046-22.841 17.046 9.205z" fill="none" style="animation-play-state:paused"/><circle r="5.666" fill="#73a543" opacity=".9" transform="translate(1558.995 907.032)" style="animation-play-state:paused"/><path d="M255.863 1223.652c0 29.038-7.105 8.34-15.445 8.34s-15.446 20.698-15.446-8.34 7.105-8.34 15.446-8.34 15.445-20.698 15.445 8.34z" fill="none" style="animation-play-state:paused"/><circle r="4.164" fill="#73a543" opacity=".9" transform="translate(232.044 1236.856)" style="animation-play-state:paused"/><path d="M825.85 1259.664c0 35.952-8.797 10.327-19.123 10.327s-19.123 25.625-19.123-10.327 8.796-10.327 19.123-10.327 19.123-25.625 19.123 10.327z" fill="none" style="animation-play-state:paused"/><circle r="3.634" fill="#73a543" opacity=".9" transform="translate(822.523 1278.73)" style="animation-play-state:paused"/><path d="M2297.17 332.028c0 35.164-8.603 10.1-18.703 10.1s-18.704 25.064-18.704-10.1 8.603-10.1 18.704-10.1 18.703-25.063 18.703 10.1z" fill="none" style="animation-play-state:paused"/><circle r="5.707" fill="#73a543" opacity=".9" transform="translate(2296.975 339.97)" style="animation-play-state:paused"/><path d="M1221.742 260.311c0 35.85-8.772 10.297-19.07 10.297s-19.068 25.552-19.068-10.297 8.772-10.297 19.069-10.297 19.069-25.552 19.069 10.297z" fill="none" style="animation-play-state:paused"/><circle r="5.339" fill="#73a543" opacity=".9" transform="translate(1199.705 271.26)" style="animation-play-state:paused"/><path d="M1253.074 778.303c0 31.583-7.727 9.072-16.8 9.072s-16.8 22.511-16.8-9.072 7.729-9.072 16.8-9.072 16.8-22.512 16.8 9.072z" fill="none" style="animation-play-state:paused"/><circle r="3.889" fill="#73a543" opacity=".9" transform="translate(1232.227 767.924)" style="animation-play-state:paused"/><path d="M1299.243 65.057c0 34.842-8.525 10.008-18.532 10.008s-18.533 24.834-18.533-10.008 8.525-10.007 18.533-10.007 18.532-24.834 18.532 10.007z" fill="none" style="animation-play-state:paused"/><circle r="3.765" fill="#73a543" opacity=".9" transform="translate(1276.418 76.406)" style="animation-play-state:paused"/><path d="M1231.013 185c0 24.81-6.07 7.126-13.197 7.126S1204.62 209.81 1204.62 185s6.07-7.126 13.196-7.126 13.197-17.684 13.197 7.126z" fill="none" style="animation-play-state:paused"/><circle r="4.512" fill="#73a543" opacity=".9" transform="translate(1229.688 197.181)" style="animation-play-state:paused"/><path d="M507.108 1290.341c0 21.79-5.331 6.259-11.59 6.259s-11.59 15.53-11.59-6.259 5.331-6.258 11.59-6.258 11.59-15.531 11.59 6.258z" fill="none" style="animation-play-state:paused"/><circle r="5.714" fill="#73a543" opacity=".9" transform="translate(483.933 1289.244)" style="animation-play-state:paused"/><path d="M1033.668 904.836c0 23.02-5.632 6.612-12.245 6.612s-12.245 16.408-12.245-6.612 5.633-6.613 12.245-6.613 12.245-16.408 12.245 6.613z" fill="none" style="animation-play-state:paused"/><circle r="3.963" fill="#73a543" opacity=".9" transform="translate(1016.574 895.9)" style="animation-play-state:paused"/><path d="M804.649 445.095c0 33.784-8.266 9.704-17.97 9.704s-17.97 24.08-17.97-9.704 8.266-9.703 17.97-9.703 17.97-24.08 17.97 9.703z" fill="none" style="animation-play-state:paused"/><circle r="4.732" fill="#73a543" opacity=".9" transform="translate(769.486 458.265)" style="animation-play-state:paused"/><path d="M2258.475 332.968c0 36.833-9.012 10.58-19.592 10.58s-19.592 26.253-19.592-10.58 9.012-10.58 19.592-10.58 19.592-26.253 19.592 10.58z" fill="none" style="animation-play-state:paused"/><circle r="5.67" fill="#73a543" opacity=".9" transform="translate(2220.173 318.417)" style="animation-play-state:paused"/><path d="M1248.471 67.278c0 24.1-5.897 6.922-12.819 6.922s-12.818 17.178-12.818-6.922 5.896-6.922 12.818-6.922 12.819-17.177 12.819 6.922z" fill="none" style="animation-play-state:paused"/><circle r="3.829" fill="#73a543" opacity=".9" transform="translate(1248.356 62.167)" style="animation-play-state:paused"/><path d="M276.716 741.683c0 19.862-4.86 5.705-10.565 5.705s-10.565 14.157-10.565-5.705 4.86-5.705 10.565-5.705 10.565-14.157 10.565 5.705z" fill="none" style="animation-play-state:paused"/><circle r="3.005" fill="#73a543" opacity=".9" transform="translate(276.698 739.722)" style="animation-play-state:paused"/><path d="M1917.577 1125.323c0 36.869-9.02 10.59-19.61 10.59s-19.612 26.279-19.612-10.59 9.021-10.59 19.611-10.59 19.611-26.278 19.611 10.59z" fill="none" style="animation-play-state:paused"/><circle r="5.952" fill="#73a543" opacity=".9" transform="translate(1908.06 1109.024)" style="animation-play-state:paused"/><path d="M1411.431 1030.419c0 23.858-5.837 6.853-12.69 6.853s-12.69 17.005-12.69-6.853 5.837-6.853 12.69-6.853 12.69-17.005 12.69 6.853z" fill="none" style="animation-play-state:paused"/><circle r="3.936" fill="#73a543" opacity=".9" transform="translate(1386.25 1024.04)" style="animation-play-state:paused"/><path d="M219.091 462.707c0 26.885-6.578 7.722-14.3 7.722s-14.301 19.163-14.301-7.722 6.578-7.723 14.3-7.723 14.301-19.163 14.301 7.723z" fill="none" style="animation-play-state:paused"/><circle r="3.084" fill="#73a543" opacity=".9" transform="translate(209.1 472.106)" style="animation-play-state:paused"/><path d="M703.991 453.272c0 34.413-8.42 9.885-18.305 9.885s-18.305 24.528-18.305-9.885 8.42-9.885 18.305-9.885 18.305-24.528 18.305 9.885z" fill="none" style="animation-play-state:paused"/><circle r="4.843" fill="#73a543" opacity=".9" transform="translate(693.309 466.94)" style="animation-play-state:paused"/><path d="M441.795 980.88c0 22.305-5.457 6.407-11.864 6.407s-11.864 15.898-11.864-6.407 5.457-6.407 11.864-6.407 11.864-15.898 11.864 6.407z" fill="none" style="animation-play-state:paused"/><circle r="5.597" fill="#73a543" opacity=".9" transform="translate(430.208 987.296)" style="animation-play-state:paused"/><path d="M629.52 380.93c0 32.58-7.971 9.358-17.33 9.358s-17.33 23.222-17.33-9.358 7.972-9.359 17.33-9.359 17.33-23.222 17.33 9.359z" fill="none" style="animation-play-state:paused"/><circle r="4.807" fill="#73a543" opacity=".9" transform="translate(595.405 369.548)" style="animation-play-state:paused"/><path d="M142.921 117.651c0 28.74-7.032 8.255-15.287 8.255s-15.286 20.484-15.286-8.255 7.032-8.255 15.286-8.255 15.287-20.484 15.287 8.255z" fill="none" style="animation-play-state:paused"/><circle r="4.769" fill="#73a543" opacity=".9" transform="translate(112.858 107.392)" style="animation-play-state:paused"/><path d="M651.749 110.304c0 19.102-4.674 5.486-10.161 5.486s-10.16 13.616-10.16-5.486 4.673-5.487 10.16-5.487 10.16-13.616 10.16 5.487z" fill="none" style="animation-play-state:paused"/><circle r="3.743" fill="#73a543" opacity=".9" transform="translate(631.496 106.732)" style="animation-play-state:paused"/><path d="M1727.71 342.462c0 36.748-8.99 10.555-19.546 10.555s-19.547 26.193-19.547-10.555 8.992-10.556 19.547-10.556 19.547-26.192 19.547 10.556z" fill="none" style="animation-play-state:paused"/><circle r="3.525" fill="#73a543" opacity=".9" transform="translate(1717.678 358.233)" style="animation-play-state:paused"/><path d="M298.423 758.298c0 25.983-6.357 7.463-13.82 7.463s-13.821 18.52-13.821-7.463 6.357-7.463 13.82-7.463 13.821-18.52 13.821 7.463z" fill="none" style="animation-play-state:paused"/><circle r="5.356" fill="#73a543" opacity=".9" transform="translate(275.647 771.291)" style="animation-play-state:paused"/><path d="M914.818 773.519c0 19.849-4.857 5.701-10.558 5.701s-10.558 14.148-10.558-5.701 4.857-5.702 10.558-5.702 10.558-14.147 10.558 5.702z" fill="none" style="animation-play-state:paused"/><circle r="4.255" fill="#73a543" opacity=".9" transform="translate(914.62 779.216)" style="animation-play-state:paused"/><path d="M1029.368 653.242c0 26.535-6.492 7.622-14.114 7.622s-14.114 18.913-14.114-7.622 6.492-7.621 14.114-7.621 14.114-18.913 14.114 7.621z" fill="none" style="animation-play-state:paused"/><circle r="3.914" fill="#73a543" opacity=".9" transform="translate(1027.764 666.584)" style="animation-play-state:paused"/><path d="M1326.947 519.322c0 35.758-8.75 10.27-19.02 10.27s-19.02 25.488-19.02-10.27 8.749-10.27 19.02-10.27 19.02-25.487 19.02 10.27z" fill="none" style="animation-play-state:paused"/><circle r="5.016" fill="#73a543" opacity=".9" transform="translate(1322.55 538.353)" style="animation-play-state:paused"/><path d="M172.603 1205.249c0 36.505-8.932 10.485-19.417 10.485s-19.417 26.02-19.417-10.485 8.932-10.485 19.417-10.485 19.417-26.02 19.417 10.485z" fill="none" style="animation-play-state:paused"/><circle r="5.396" fill="#73a543" opacity=".9" transform="translate(160.614 1191.292)" style="animation-play-state:paused"/><path d="M330.677 575.83c0 32.156-7.868 9.237-17.104 9.237s-17.104 22.92-17.104-9.236 7.868-9.236 17.104-9.236 17.104-22.92 17.104 9.236z" fill="none" style="animation-play-state:paused"/><circle r="3.884" fill="#73a543" opacity=".9" transform="translate(300.893 558.848)" style="animation-play-state:paused"/><path d="M2062.009 1011.268c0 26.316-6.44 7.559-13.998 7.559s-13.999 18.757-13.999-7.56 6.44-7.558 13.999-7.558 13.998-18.758 13.998 7.559z" fill="none" style="animation-play-state:paused"/><circle r="4.522" fill="#73a543" opacity=".9" transform="translate(2034.38 1002.655)" style="animation-play-state:paused"/><path d="M1528.936 760.615c0 26.745-6.544 7.682-14.226 7.682s-14.226 19.063-14.226-7.682 6.544-7.682 14.226-7.682 14.226-19.062 14.226 7.682z" fill="none" style="animation-play-state:paused"/><circle r="3.377" fill="#73a543" opacity=".9" transform="translate(1516.172 768.515)" style="animation-play-state:paused"/><path d="M2157.022 1245.16c0 36.813-9.007 10.574-19.581 10.574s-19.582 26.24-19.582-10.574 9.008-10.574 19.582-10.574 19.581-26.24 19.581 10.574z" fill="none" style="animation-play-state:paused"/><circle r="5.501" fill="#73a543" opacity=".9" transform="translate(2151.568 1264.44)" style="animation-play-state:paused"/><path d="M1034.676 844.793c0 22.719-5.559 6.525-12.084 6.525s-12.085 16.194-12.085-6.525 5.559-6.526 12.085-6.526 12.084-16.194 12.084 6.526z" fill="none" style="animation-play-state:paused"/><circle r="5.567" fill="#73a543" opacity=".9" transform="translate(1034.676 845.186)" style="animation-play-state:paused"/></g></svg>